<svg width="53" height="53" viewBox="0 0 53 53" fill="none" xmlns="http://www.w3.org/2000/svg">
<path d="M49.1406 34.0557L34.0557 49.1406M49.1406 34.0557L41.598 26.513M49.1406 34.0557L51.0262 35.9413M34.0557 49.1406L26.513 41.598M34.0557 49.1406L35.9413 51.0262M26.513 41.598L41.598 26.513M26.513 41.598C22.3474 37.4324 22.3476 30.6788 26.5132 26.5132M41.598 26.513C37.4324 22.3474 30.6788 22.3476 26.5132 26.5132M26.513 11.4281L11.4281 26.513M26.513 11.4281C30.6786 15.5937 30.6788 22.3476 26.5132 26.5132M26.513 11.4281L18.9707 3.88574M11.4281 26.513C15.5937 30.6786 22.3476 30.6788 26.5132 26.5132M11.4281 26.513L3.88574 18.9707M18.9707 3.88574L3.88574 18.9707M18.9707 3.88574L17.0849 2M3.88574 18.9707L2 17.0849" stroke="#33A9E0" stroke-width="3" stroke-linecap="round" stroke-linejoin="round"/>
</svg>
