<svg width="222" height="39" viewBox="0 0 222 39" fill="none" xmlns="http://www.w3.org/2000/svg">
<path d="M1.59091 31V13.5455H7.54545V16.8636H7.72727C8.09091 15.7727 8.71212 14.9091 9.59091 14.2727C10.4697 13.6364 11.5152 13.3182 12.7273 13.3182C13.9545 13.3182 15.0114 13.6439 15.8977 14.2955C16.7841 14.9394 17.3182 15.7955 17.5 16.8636H17.6818C17.9773 15.7955 18.6061 14.9394 19.5682 14.2955C20.5303 13.6439 21.6591 13.3182 22.9545 13.3182C24.6288 13.3182 25.9848 13.8561 27.0227 14.9318C28.0682 16.0076 28.5909 17.4394 28.5909 19.2273V31H22.3182V20.8182C22.3182 20.053 22.125 19.4545 21.7386 19.0227C21.3523 18.5833 20.8333 18.3636 20.1818 18.3636C19.5379 18.3636 19.0265 18.5833 18.6477 19.0227C18.2765 19.4545 18.0909 20.053 18.0909 20.8182V31H12.0909V20.8182C12.0909 20.053 11.8977 19.4545 11.5114 19.0227C11.125 18.5833 10.6061 18.3636 9.95455 18.3636C9.52273 18.3636 9.15152 18.4621 8.84091 18.6591C8.5303 18.8561 8.28788 19.1402 8.11364 19.5114C7.94697 19.875 7.86364 20.3106 7.86364 20.8182V31H1.59091ZM36.5483 31.2727C35.4347 31.2727 34.4498 31.0909 33.5938 30.7273C32.7453 30.3561 32.0786 29.7955 31.5938 29.0455C31.1089 28.2955 30.8665 27.3409 30.8665 26.1818C30.8665 25.2273 31.0294 24.4129 31.3551 23.7386C31.6809 23.0568 32.1354 22.5 32.7188 22.0682C33.3021 21.6364 33.9801 21.3068 34.7528 21.0795C35.5331 20.8523 36.3741 20.7045 37.2756 20.6364C38.2528 20.5606 39.0369 20.4697 39.6278 20.3636C40.2263 20.25 40.6581 20.0947 40.9233 19.8977C41.1884 19.6932 41.321 19.4242 41.321 19.0909V19.0455C41.321 18.5909 41.1468 18.2424 40.7983 18C40.4498 17.7576 40.0028 17.6364 39.4574 17.6364C38.8589 17.6364 38.3703 17.7689 37.9915 18.0341C37.6203 18.2917 37.3968 18.6894 37.321 19.2273H31.5483C31.6241 18.1667 31.9612 17.1894 32.5597 16.2955C33.1657 15.3939 34.0483 14.6742 35.2074 14.1364C36.3665 13.5909 37.8134 13.3182 39.5483 13.3182C40.7983 13.3182 41.9195 13.4659 42.9119 13.7614C43.9044 14.0492 44.7491 14.4545 45.446 14.9773C46.143 15.4924 46.6733 16.0985 47.0369 16.7955C47.4081 17.4848 47.5938 18.2348 47.5938 19.0455V31H41.7301V28.5455H41.5938C41.2453 29.197 40.821 29.7235 40.321 30.125C39.8286 30.5265 39.2642 30.8182 38.6278 31C37.9991 31.1818 37.3059 31.2727 36.5483 31.2727ZM38.5938 27.3182C39.071 27.3182 39.518 27.2197 39.9347 27.0227C40.3589 26.8258 40.7036 26.5417 40.9688 26.1705C41.2339 25.7992 41.3665 25.3485 41.3665 24.8182V23.3636C41.1998 23.4318 41.0218 23.4962 40.8324 23.5568C40.6506 23.6174 40.4536 23.6742 40.2415 23.7273C40.0369 23.7803 39.8172 23.8295 39.5824 23.875C39.3551 23.9205 39.1165 23.9621 38.8665 24C38.3816 24.0758 37.9839 24.2008 37.6733 24.375C37.3703 24.5417 37.143 24.75 36.9915 25C36.8475 25.2424 36.7756 25.5152 36.7756 25.8182C36.7756 26.303 36.946 26.6742 37.2869 26.9318C37.6278 27.1894 38.0634 27.3182 38.5938 27.3182ZM66.5455 19.2273H60.7727C60.7424 18.8712 60.6174 18.5644 60.3977 18.3068C60.178 18.0492 59.8939 17.8523 59.5455 17.7159C59.2045 17.572 58.8258 17.5 58.4091 17.5C57.8712 17.5 57.4091 17.5985 57.0227 17.7955C56.6364 17.9924 56.447 18.2727 56.4545 18.6364C56.447 18.8939 56.5568 19.1326 56.7841 19.3523C57.0189 19.572 57.4697 19.7424 58.1364 19.8636L61.6818 20.5C63.4697 20.8258 64.7992 21.375 65.6705 22.1477C66.5492 22.9129 66.9924 23.9394 67 25.2273C66.9924 26.4697 66.6212 27.5492 65.8864 28.4659C65.1591 29.375 64.1629 30.0795 62.8977 30.5795C61.6402 31.072 60.2045 31.3182 58.5909 31.3182C55.9242 31.3182 53.8371 30.7727 52.3295 29.6818C50.8295 28.5909 49.9924 27.1515 49.8182 25.3636H56.0455C56.1288 25.9167 56.4015 26.3447 56.8636 26.6477C57.3333 26.9432 57.9242 27.0909 58.6364 27.0909C59.2121 27.0909 59.6856 26.9924 60.0568 26.7955C60.4356 26.5985 60.6288 26.3182 60.6364 25.9545C60.6288 25.6212 60.4621 25.3561 60.1364 25.1591C59.8182 24.9621 59.3182 24.803 58.6364 24.6818L55.5455 24.1364C53.7652 23.8258 52.4318 23.2348 51.5455 22.3636C50.6591 21.4924 50.2197 20.3712 50.2273 19C50.2197 17.7879 50.5379 16.7614 51.1818 15.9205C51.8333 15.072 52.7614 14.428 53.9659 13.9886C55.178 13.5417 56.6136 13.3182 58.2727 13.3182C60.7955 13.3182 62.7841 13.8409 64.2386 14.8864C65.7008 15.9318 66.4697 17.3788 66.5455 19.2273ZM79.8125 13.5455V18.0909H68.3125V13.5455H79.8125ZM70.5398 9.36364H76.8125V25.3864C76.8125 25.6288 76.8542 25.8333 76.9375 26C77.0208 26.1591 77.1496 26.2803 77.3239 26.3636C77.4981 26.4394 77.7216 26.4773 77.9943 26.4773C78.1837 26.4773 78.4034 26.4545 78.6534 26.4091C78.911 26.3636 79.1004 26.3258 79.2216 26.2955L80.1307 30.7045C79.8504 30.7879 79.4489 30.8902 78.9261 31.0114C78.411 31.1326 77.7973 31.2121 77.0852 31.25C75.6458 31.3258 74.4375 31.178 73.4602 30.8068C72.483 30.428 71.7481 29.8333 71.2557 29.0227C70.7633 28.2121 70.5246 27.197 70.5398 25.9773V9.36364ZM90.5483 31.3182C88.6847 31.3182 87.0786 30.9621 85.7301 30.25C84.3892 29.5303 83.3551 28.5 82.6278 27.1591C81.9081 25.8106 81.5483 24.197 81.5483 22.3182C81.5483 20.5152 81.9119 18.9394 82.6392 17.5909C83.3665 16.2424 84.393 15.1932 85.7188 14.4432C87.0445 13.6932 88.6089 13.3182 90.4119 13.3182C91.7301 13.3182 92.9233 13.5227 93.9915 13.9318C95.0597 14.3409 95.9725 14.9356 96.7301 15.7159C97.4877 16.4886 98.071 17.428 98.4801 18.5341C98.8892 19.6402 99.0938 20.8864 99.0938 22.2727V23.7273H83.5028V20.2727H93.321C93.3134 19.7727 93.1847 19.3333 92.9347 18.9545C92.6922 18.5682 92.3627 18.2689 91.946 18.0568C91.5369 17.8371 91.071 17.7273 90.5483 17.7273C90.0407 17.7273 89.5748 17.8371 89.1506 18.0568C88.7263 18.2689 88.3854 18.5644 88.1278 18.9432C87.8778 19.322 87.7453 19.7652 87.7301 20.2727V24C87.7301 24.5606 87.8475 25.0606 88.0824 25.5C88.3172 25.9394 88.6544 26.2841 89.0938 26.5341C89.5331 26.7841 90.0634 26.9091 90.6847 26.9091C91.1165 26.9091 91.5104 26.8485 91.8665 26.7273C92.2301 26.6061 92.5407 26.4318 92.7983 26.2045C93.0559 25.9697 93.2453 25.6894 93.3665 25.3636H99.0938C98.8968 26.5758 98.4309 27.6288 97.696 28.5227C96.9612 29.4091 95.9877 30.0985 94.7756 30.5909C93.571 31.0758 92.1619 31.3182 90.5483 31.3182ZM101.653 31V13.5455H107.744V16.8636H107.926C108.244 15.6364 108.748 14.7386 109.438 14.1705C110.134 13.6023 110.949 13.3182 111.881 13.3182C112.153 13.3182 112.422 13.3409 112.688 13.3864C112.96 13.4242 113.222 13.4811 113.472 13.5568V18.9091C113.161 18.803 112.778 18.7235 112.324 18.6705C111.869 18.6174 111.479 18.5909 111.153 18.5909C110.54 18.5909 109.987 18.7311 109.494 19.0114C109.009 19.2841 108.627 19.6705 108.347 20.1705C108.066 20.6629 107.926 21.2424 107.926 21.9091V31H101.653ZM121.801 21.1818V31H115.528V7.72727H121.574V16.8636H121.756C122.15 15.75 122.805 14.8826 123.722 14.2614C124.638 13.6326 125.741 13.3182 127.028 13.3182C128.263 13.3182 129.335 13.5985 130.244 14.1591C131.161 14.7197 131.869 15.4924 132.369 16.4773C132.877 17.4621 133.127 18.5909 133.119 19.8636V31H126.847V21.1818C126.854 20.3182 126.638 19.6402 126.199 19.1477C125.767 18.6553 125.15 18.4091 124.347 18.4091C123.839 18.4091 123.392 18.5227 123.006 18.75C122.627 18.9697 122.331 19.2879 122.119 19.7045C121.915 20.1136 121.809 20.6061 121.801 21.1818ZM147.534 23.3636V13.5455H153.807V31H147.852V27.6818H147.67C147.292 28.7955 146.629 29.6667 145.682 30.2955C144.735 30.9167 143.61 31.2273 142.307 31.2273C141.087 31.2273 140.019 30.947 139.102 30.3864C138.193 29.8258 137.485 29.053 136.977 28.0682C136.477 27.0833 136.223 25.9545 136.216 24.6818V13.5455H142.489V23.3636C142.496 24.2273 142.716 24.9053 143.148 25.3977C143.587 25.8902 144.201 26.1364 144.989 26.1364C145.511 26.1364 145.962 26.0265 146.341 25.8068C146.727 25.5795 147.023 25.2614 147.227 24.8523C147.439 24.4356 147.542 23.9394 147.534 23.3636ZM156.906 31V7.72727H163.179V16.5909H163.27C163.497 16 163.83 15.4583 164.27 14.9659C164.709 14.4659 165.255 14.0682 165.906 13.7727C166.558 13.4697 167.315 13.3182 168.179 13.3182C169.33 13.3182 170.425 13.625 171.463 14.2386C172.509 14.8523 173.357 15.8182 174.009 17.1364C174.668 18.4545 174.997 20.1667 174.997 22.2727C174.997 24.2879 174.683 25.9583 174.054 27.2841C173.433 28.6098 172.599 29.5985 171.554 30.25C170.516 30.9015 169.376 31.2273 168.134 31.2273C167.315 31.2273 166.584 31.0947 165.94 30.8295C165.304 30.5568 164.759 30.1894 164.304 29.7273C163.857 29.2576 163.512 28.7273 163.27 28.1364H163.134V31H156.906ZM163.043 22.2727C163.043 23.1212 163.152 23.8561 163.372 24.4773C163.599 25.0909 163.918 25.5682 164.327 25.9091C164.743 26.2424 165.24 26.4091 165.815 26.4091C166.391 26.4091 166.88 26.2462 167.281 25.9205C167.69 25.5871 168.001 25.1136 168.213 24.5C168.433 23.8788 168.543 23.1364 168.543 22.2727C168.543 21.4091 168.433 20.6705 168.213 20.0568C168.001 19.4356 167.69 18.9621 167.281 18.6364C166.88 18.303 166.391 18.1364 165.815 18.1364C165.24 18.1364 164.743 18.303 164.327 18.6364C163.918 18.9621 163.599 19.4356 163.372 20.0568C163.152 20.6705 163.043 21.4091 163.043 22.2727Z" fill="#FAFAFA"/>
<path d="M186.031 37.9091C184.281 37.9091 182.781 37.6591 181.531 37.1591C180.289 36.6667 179.323 35.9848 178.634 35.1136C177.952 34.25 177.569 33.2576 177.486 32.1364H183.531C183.592 32.5076 183.743 32.8068 183.986 33.0341C184.228 33.2614 184.539 33.4242 184.918 33.5227C185.304 33.6288 185.736 33.6818 186.213 33.6818C187.024 33.6818 187.694 33.4848 188.224 33.0909C188.762 32.697 189.031 31.9848 189.031 30.9545V28H188.849C188.622 28.5909 188.274 29.0947 187.804 29.5114C187.334 29.9205 186.77 30.2348 186.111 30.4545C185.452 30.6667 184.728 30.7727 183.94 30.7727C182.698 30.7727 181.554 30.4848 180.509 29.9091C179.471 29.3333 178.637 28.4205 178.009 27.1705C177.387 25.9205 177.077 24.2879 177.077 22.2727C177.077 20.1667 177.402 18.4545 178.054 17.1364C178.713 15.8182 179.562 14.8523 180.599 14.2386C181.645 13.625 182.743 13.3182 183.895 13.3182C184.759 13.3182 185.516 13.4697 186.168 13.7727C186.819 14.0682 187.365 14.4659 187.804 14.9659C188.243 15.4583 188.577 16 188.804 16.5909H188.94V13.5455H195.213V30.9545C195.213 32.4318 194.83 33.6856 194.065 34.7159C193.308 35.7538 192.24 36.5455 190.861 37.0909C189.482 37.6364 187.872 37.9091 186.031 37.9091ZM186.259 26.3182C186.834 26.3182 187.327 26.1591 187.736 25.8409C188.152 25.5152 188.471 25.053 188.69 24.4545C188.918 23.8485 189.031 23.1212 189.031 22.2727C189.031 21.4091 188.918 20.6705 188.69 20.0568C188.471 19.4356 188.152 18.9621 187.736 18.6364C187.327 18.303 186.834 18.1364 186.259 18.1364C185.683 18.1364 185.19 18.303 184.781 18.6364C184.38 18.9621 184.069 19.4356 183.849 20.0568C183.637 20.6705 183.531 21.4091 183.531 22.2727C183.531 23.1364 183.637 23.8712 183.849 24.4773C184.069 25.0758 184.38 25.5341 184.781 25.8523C185.19 26.1629 185.683 26.3182 186.259 26.3182ZM206.812 31.3182C204.919 31.3182 203.297 30.9432 201.949 30.1932C200.6 29.4356 199.566 28.3826 198.847 27.0341C198.127 25.678 197.767 24.1061 197.767 22.3182C197.767 20.5303 198.127 18.9621 198.847 17.6136C199.566 16.2576 200.6 15.2045 201.949 14.4545C203.297 13.697 204.919 13.3182 206.812 13.3182C208.706 13.3182 210.328 13.697 211.676 14.4545C213.025 15.2045 214.059 16.2576 214.778 17.6136C215.498 18.9621 215.858 20.5303 215.858 22.3182C215.858 24.1061 215.498 25.678 214.778 27.0341C214.059 28.3826 213.025 29.4356 211.676 30.1932C210.328 30.9432 208.706 31.3182 206.812 31.3182ZM206.858 26.6818C207.388 26.6818 207.847 26.5038 208.233 26.1477C208.619 25.7917 208.919 25.2841 209.131 24.625C209.343 23.9659 209.449 23.1818 209.449 22.2727C209.449 21.3561 209.343 20.572 209.131 19.9205C208.919 19.2614 208.619 18.7538 208.233 18.3977C207.847 18.0417 207.388 17.8636 206.858 17.8636C206.297 17.8636 205.816 18.0417 205.415 18.3977C205.013 18.7538 204.706 19.2614 204.494 19.9205C204.282 20.572 204.176 21.3561 204.176 22.2727C204.176 23.1818 204.282 23.9659 204.494 24.625C204.706 25.2841 205.013 25.7917 205.415 26.1477C205.816 26.5038 206.297 26.6818 206.858 26.6818Z" fill="#33A9E0"/>
<circle cx="219" cy="10" r="3" fill="#33A9E0"/>
</svg>
